<?xml version="1.0" encoding="utf-8"?>
<!-- Generator: Adobe Illustrator 18.0.0, SVG Export Plug-In . SVG Version: 6.00 Build 0)  -->
<!DOCTYPE svg PUBLIC "-//W3C//DTD SVG 1.1//EN" "http://www.w3.org/Graphics/SVG/1.1/DTD/svg11.dtd">
<svg version="1.1" id="Layer_1" xmlns="http://www.w3.org/2000/svg" xmlns:xlink="http://www.w3.org/1999/xlink" x="0px" y="0px"
	 viewBox="0 0 16 16" enable-background="new 0 0 16 16" xml:space="preserve">
<path fill="#999999" d="M8,2.5c-0.5,0-1-0.5-1-1V1c0-0.5-0.5-1-1-1H1C0.5,0,0,0.5,0,1v0.5c0,0.5,0,11,0,11c0,0.5,0.5,1,1,1h14
	c0.5,0,1-0.5,1-1v-9c0-0.5-0.5-1-1-1H8z"/>
<path fill="#FFFFFF" d="M11.6,12.4l3.7-3.7c0.2-0.1,0.3-0.4,0.3-0.7c0-0.2-0.1-0.5-0.3-0.7l-3.7-3.7c-0.4-0.4-1-0.4-1.4,0L9.5,4.3
	c-0.4,0.4-0.4,1,0,1.4l0.8,0.8H6.1C5.6,6.5,5,7,5,7.5l0,1c0,0.6,0.5,1,1.1,1h4.2l-0.8,0.8c-0.4,0.4-0.4,1,0,1.4l0.7,0.7
	C10.6,12.8,11.2,12.8,11.6,12.4z"/>
</svg>
